<svg xmlns="http://www.w3.org/2000/svg" version="1.1" xmlns:xlink="http://www.w3.org/1999/xlink" width="512" height="512" x="0" y="0" viewBox="0 0 24 24" style="enable-background:new 0 0 512 512" xml:space="preserve" fill-rule="evenodd"><g transform="matrix(1.0999999999999994,0,0,1.0999999999999994,-1.199999999999994,-1.2000000715255634)"><path d="M9.207 6.562A7.224 7.224 0 0 1 14 4.75c4.001 0 7.25 3.249 7.25 7.25s-3.249 7.25-7.25 7.25a7.224 7.224 0 0 1-4.793-1.812.75.75 0 0 0-.993 1.124A8.715 8.715 0 0 0 14 20.75c4.829 0 8.75-3.921 8.75-8.75S18.829 3.25 14 3.25a8.715 8.715 0 0 0-5.786 2.188.75.75 0 1 0 .993 1.124z" fill="#FC8C03" opacity="1" data-original="#000000"></path><path d="M12.85 7.6v4c0 .199.079.39.22.53l3.2 3.2a.749.749 0 1 0 1.06-1.06l-2.98-2.981V7.6a.75.75 0 0 0-1.5 0zM2 9.25h6a.75.75 0 0 0 0-1.5H2a.75.75 0 0 0 0 1.5zM3 12.75h6a.75.75 0 0 0 0-1.5H3a.75.75 0 0 0 0 1.5zM4 16.25h6a.75.75 0 0 0 0-1.5H4a.75.75 0 0 0 0 1.5z" fill="#FC8C03" opacity="1" data-original="#000000"></path></g></svg>