<svg xmlns="http://www.w3.org/2000/svg" version="1.1" xmlns:xlink="http://www.w3.org/1999/xlink" width="512" height="512" x="0" y="0" viewBox="0 0 682.667 682.667" style="enable-background:new 0 0 512 512" xml:space="preserve" class=""><g><defs><clipPath id="a" clipPathUnits="userSpaceOnUse"><path d="M0 512h512V0H0Z" fill="#FC8C03" opacity="1" data-original="#000000"></path></clipPath></defs><g clip-path="url(#a)" transform="matrix(1.33333 0 0 -1.33333 0 682.667)"><path d="M0 0c0-8.284 6.716-15 15-15 8.284 0 15 6.716 15 15 0 8.284-6.716 15-15 15C6.716 15 0 8.284 0 0" style="fill-opacity:1;fill-rule:nonzero;stroke:none" transform="translate(271 376)" fill="#FC8C03" data-original="#000000" opacity="1"></path><path d="M0 0c0-8.284 6.716-15 15-15 8.284 0 15 6.716 15 15 0 8.284-6.716 15-15 15C6.716 15 0 8.284 0 0" style="fill-opacity:1;fill-rule:nonzero;stroke:none" transform="translate(331 376)" fill="#FC8C03" data-original="#000000" opacity="1"></path><path d="M0 0c0-8.284 6.716-15 15-15 8.284 0 15 6.716 15 15 0 8.284-6.716 15-15 15C6.716 15 0 8.284 0 0" style="fill-opacity:1;fill-rule:nonzero;stroke:none" transform="translate(391 376)" fill="#FC8C03" data-original="#000000" opacity="1"></path><path d="m0 0 45 30 89.787-30v-60c0-16.568-13.218-30-29.787-30-165.685 0-322.213 155.528-322.213 321.213 0 16.568 13.432 29.787 30 29.787h60l30-89.787-30-45C-108.056 78.32-47.893 19.157 0 0Z" style="stroke-width:30;stroke-linecap:round;stroke-linejoin:round;stroke-miterlimit:10;stroke-dasharray:none;stroke-opacity:1" transform="translate(232.213 136)" fill="none" stroke="#FC8C03" stroke-width="30" stroke-linecap="round" stroke-linejoin="round" stroke-miterlimit="10" stroke-dasharray="none" stroke-opacity="" data-original="#000000" opacity="1"></path><path d="M0 0c0-49.706 40.294-90 90-90v-60l60 60h60c49.706 0 91 40.294 91 90s-41.294 90-91 90H90C40.294 90 0 49.706 0 0Z" style="stroke-width:30;stroke-linecap:round;stroke-linejoin:round;stroke-miterlimit:10;stroke-dasharray:none;stroke-opacity:1" transform="translate(196 376)" fill="none" stroke="#FC8C03" stroke-width="30" stroke-linecap="round" stroke-linejoin="round" stroke-miterlimit="10" stroke-dasharray="none" stroke-opacity="" data-original="#000000" opacity="1"></path></g></g></svg>