<svg xmlns="http://www.w3.org/2000/svg" version="1.1" xmlns:xlink="http://www.w3.org/1999/xlink" width="512" height="512" x="0" y="0" viewBox="0 0 682.667 682.667" style="enable-background:new 0 0 512 512" xml:space="preserve" class=""><g><defs><clipPath id="a" clipPathUnits="userSpaceOnUse"><path d="M0 512h512V0H0Z" fill="#FC8C03" opacity="1" data-original="#000000"></path></clipPath></defs><g clip-path="url(#a)" transform="matrix(1.33333 0 0 -1.33333 0 682.667)"><path d="M0 0c39.91-15.25 84.384-20.04 129.453-11.649 130.445 24.292 216.473 149.723 192.181 280.171C297.342 398.942 171.914 485 41.498 460.708c-130.445-24.292-216.473-149.724-192.181-280.172 5.811-31.265 17.46-59.98 33.589-85.236-3.769-39.855-11.962-75.316-37.699-119.564C-106.124-33.022-42.063-21.287 0 0Z" style="stroke-width:20;stroke-linecap:round;stroke-linejoin:round;stroke-miterlimit:10;stroke-dasharray:none;stroke-opacity:1" transform="translate(170.527 37.188)" fill="none" stroke="#FC8C03" stroke-width="20" stroke-linecap="round" stroke-linejoin="round" stroke-miterlimit="10" stroke-dasharray="none" stroke-opacity="" data-original="#000000" class="" opacity="1"></path><path d="M0 0h61.735C69.984 0 76.73-6.746 76.73-14.995v-51.76c0-8.249-6.746-14.995-14.995-14.995h-33.39v-28.743c0-8.957 7.398-16.356 16.355-16.356h32.03v-43.34H44.7c-32.881 0-59.695 26.815-59.695 59.696V-14.995C-14.995-6.746-8.249 0 0 0Z" style="stroke-width:20;stroke-linecap:round;stroke-linejoin:round;stroke-miterlimit:10;stroke-dasharray:none;stroke-opacity:1" transform="translate(155.137 346.813)" fill="none" stroke="#FC8C03" stroke-width="20" stroke-linecap="round" stroke-linejoin="round" stroke-miterlimit="10" stroke-dasharray="none" stroke-opacity="" data-original="#000000" class="" opacity="1"></path><path d="M0 0h61.735C69.984 0 76.73-6.746 76.73-14.995v-51.76c0-8.249-6.746-14.995-14.995-14.995H28.316v-28.743c0-8.957 7.427-16.356 16.384-16.356h32.03v-43.34H44.7c-32.881 0-59.723 26.815-59.723 59.696V-14.995C-15.023-6.746-8.249 0 0 0Z" style="stroke-width:20;stroke-linecap:round;stroke-linejoin:round;stroke-miterlimit:10;stroke-dasharray:none;stroke-opacity:1" transform="translate(295.134 346.813)" fill="none" stroke="#FC8C03" stroke-width="20" stroke-linecap="round" stroke-linejoin="round" stroke-miterlimit="10" stroke-dasharray="none" stroke-opacity="" data-original="#000000" class="" opacity="1"></path><path d="m0 0-.028-.028" style="stroke-width:20;stroke-linecap:round;stroke-linejoin:round;stroke-miterlimit:10;stroke-dasharray:none;stroke-opacity:1" transform="translate(119.847 397.948)" fill="none" stroke="#FC8C03" stroke-width="20" stroke-linecap="round" stroke-linejoin="round" stroke-miterlimit="10" stroke-dasharray="none" stroke-opacity="" data-original="#000000" class="" opacity="1"></path><path d="M0 0c74.18 45.609 172.594 36.255 236.881-28.006 75.228-75.23 75.228-197.175 0-272.405-75.229-75.201-197.169-75.201-272.369 0-64.287 64.289-73.614 162.706-28.033 236.916" style="stroke-width:20;stroke-linecap:round;stroke-linejoin:round;stroke-miterlimit:10;stroke-dasharray:none;stroke-opacity:1" transform="translate(155.307 425.926)" fill="none" stroke="#FC8C03" stroke-width="20" stroke-linecap="round" stroke-linejoin="round" stroke-miterlimit="10" stroke-dasharray="none" stroke-opacity="" data-original="#000000" class="" opacity="1"></path></g></g></svg>